<svg xmlns="http://www.w3.org/2000/svg" width="60" height="60" fill="none"><path fill="#fff" fill-rule="evenodd" d="m52.526 25.428.006 9.057a60.931 60.931 0 0 1-.247 2.585c-.168 1.439-1.337 2.6-2.806 2.763-4.6.514-9.359.514-13.958 0-1.468-.164-2.638-1.324-2.806-2.763a60.854 60.854 0 0 1 0-14.14c.168-1.439 1.337-2.6 2.806-2.763 4.6-.514 9.359-.514 13.958 0 1.469.164 2.638 1.324 2.806 2.763.098.831.178 1.664.24 2.498ZM42.5 26.25a3.75 3.75 0 1 0 0 7.5 3.75 3.75 0 0 0 0-7.5Z" clip-rule="evenodd"/><path fill="#fff" d="M51.01 15.1c.388.673-.342 1.426-1.114 1.34a67.11 67.11 0 0 0-14.791 0c-3.174.355-5.74 2.854-6.115 6.054a64.621 64.621 0 0 0 0 15.012c.375 3.2 2.941 5.7 6.115 6.054a67.11 67.11 0 0 0 14.79 0c.778-.087 1.514.672 1.121 1.35a12.428 12.428 0 0 1-9.449 6.124l-1.63.171a111.62 111.62 0 0 1-24.89-.171l-1.08-.129a9.828 9.828 0 0 1-8.578-8.46 94.1 94.1 0 0 1 0-24.89 9.828 9.828 0 0 1 8.579-8.46l1.08-.129a111.625 111.625 0 0 1 24.89-.171l1.63.172c4.035.424 7.5 2.77 9.441 6.132Z"/></svg>