<svg xmlns="http://www.w3.org/2000/svg" width="30" height="30" fill="none"><path fill="#fff" fill-rule="evenodd" d="M23.125 14.063a3.369 3.369 0 0 0-3.295 2.668l-.028.13c-.085.4-.1.811-.044 1.216l.191 1.391-.214.027a2.207 2.207 0 0 0-1.923 2.188v2.884c0 1.109.823 2.045 1.923 2.188 2.25.292 4.53.292 6.78 0a2.207 2.207 0 0 0 1.922-2.188v-2.884a2.207 2.207 0 0 0-1.922-2.188l-.214-.027.19-1.39c.056-.406.042-.817-.043-1.217l-.028-.13a3.369 3.369 0 0 0-3.295-2.669Zm1.305 5.245.204-1.486c.026-.19.02-.383-.02-.57l-.028-.131a1.494 1.494 0 0 0-2.922 0l-.028.13a1.66 1.66 0 0 0-.02.57l.204 1.487c.87-.043 1.74-.043 2.61 0Z" clip-rule="evenodd"/><path fill="#fff" d="M25.865 12.476c.032.21-.201.362-.391.267a5.243 5.243 0 0 0-7.478 3.599l-.028.13a5.407 5.407 0 0 0-.11 1.415c.01.194-.081.38-.238.494a4.08 4.08 0 0 0-1.683 3.302v1.774a.374.374 0 0 1-.37.374 90.302 90.302 0 0 1-7.007-.228l-1.892-.136a2.66 2.66 0 0 1-2.428-2.175 29.663 29.663 0 0 1-.271-8.869l.34-2.836a2.724 2.724 0 0 1 2.705-2.4H9.88a2.246 2.246 0 0 1 2.246 2.246c0 .041.033.075.074.075H23.09c1.326 0 2.455.963 2.664 2.272l.08.502.03.194Z"/></svg>