<svg xmlns="http://www.w3.org/2000/svg" width="124" height="20" fill="none"><path fill="#299764" d="M10.72 2.497a.833.833 0 0 0-1.44 0L7.016 6.395c-.158.273-.432.46-.745.507l-4.239.64a.833.833 0 0 0-.407 1.466l3.158 2.616c.292.242.43.624.359.997l-.826 4.337a.833.833 0 0 0 1.206.894l3.992-2.102c.303-.16.666-.16.97 0l3.991 2.102a.833.833 0 0 0 1.207-.894l-.826-4.337a1.042 1.042 0 0 1 .359-.997l3.158-2.616a.833.833 0 0 0-.408-1.466l-4.238-.64a1.042 1.042 0 0 1-.746-.507l-2.261-3.898ZM36.72 2.497a.833.833 0 0 0-1.44 0l-2.263 3.898c-.158.273-.432.46-.745.507l-4.239.64a.833.833 0 0 0-.407 1.466l3.158 2.616c.292.242.43.624.358.997l-.825 4.337a.833.833 0 0 0 1.206.894l3.992-2.102c.303-.16.666-.16.97 0l3.991 2.102a.833.833 0 0 0 1.207-.894l-.826-4.337a1.042 1.042 0 0 1 .359-.997l3.158-2.616a.833.833 0 0 0-.408-1.466l-4.238-.64a1.042 1.042 0 0 1-.746-.507l-2.261-3.898ZM62.72 2.497a.833.833 0 0 0-1.44 0l-2.263 3.898c-.158.273-.432.46-.745.507l-4.239.64a.833.833 0 0 0-.407 1.466l3.158 2.616c.292.242.43.624.358.997l-.825 4.337a.833.833 0 0 0 1.206.894l3.992-2.102c.303-.16.666-.16.97 0l3.991 2.102a.833.833 0 0 0 1.207-.894l-.826-4.337a1.042 1.042 0 0 1 .359-.997l3.158-2.616a.833.833 0 0 0-.408-1.466l-4.238-.64a1.042 1.042 0 0 1-.746-.507l-2.261-3.898ZM88.72 2.497a.833.833 0 0 0-1.44 0l-2.263 3.898c-.158.273-.432.46-.745.507l-4.239.64a.833.833 0 0 0-.407 1.466l3.158 2.616c.292.242.43.624.358.997l-.825 4.337a.833.833 0 0 0 1.206.894l3.992-2.102c.303-.16.666-.16.97 0l3.991 2.102a.833.833 0 0 0 1.207-.894l-.826-4.337a1.042 1.042 0 0 1 .359-.997l3.158-2.616a.833.833 0 0 0-.408-1.466l-4.238-.64a1.042 1.042 0 0 1-.746-.507l-2.261-3.898ZM114.417 2.052c0-.216-.174-.407-.376-.33a.824.824 0 0 0-.419.36L111.36 5.98a1.04 1.04 0 0 1-.745.507l-4.239.64a.833.833 0 0 0-.407 1.466l3.158 2.616c.292.242.429.624.358.997l-.826 4.337a.834.834 0 0 0 1.207.893l3.991-2.101c.039-.02.079-.039.12-.054.227-.085.44-.269.44-.51V2.05Z"/></svg>